<svg xmlns="http://www.w3.org/2000/svg" viewBox="0 0 512 512" role="img" aria-label="COMSTRX icon">
  <defs>
    <linearGradient id="g" x1="0" y1="0" x2="1" y2="1">
      <stop offset="0" stop-color="#00ff41"></stop>
      <stop offset="1" stop-color="#00f0ff"></stop>
    </linearGradient>

    <filter id="glow" x="-40%" y="-40%" width="180%" height="180%">
      <feGaussianBlur stdDeviation="6" result="b"></feGaussianBlur>
      <feColorMatrix in="b" type="matrix" values="1 0 0 0 0
                0 1 0 0 0
                0 0 1 0 0
                0 0 0 0.85 0" result="g1"></feColorMatrix>
      <feGaussianBlur stdDeviation="16" in="g1" result="b2"></feGaussianBlur>
      <feMerge>
        <feMergeNode in="b2"></feMergeNode>
        <feMergeNode in="g1"></feMergeNode>
        <feMergeNode in="SourceGraphic"></feMergeNode>
      </feMerge>
    </filter>

    <pattern id="grid" width="32" height="32" patternUnits="userSpaceOnUse">
      <path d="M32 0H0V32" fill="none" stroke="rgba(0,255,65,0.10)" stroke-width="1"></path>
    </pattern>

    <clipPath id="clip">
      <rect x="56" y="56" width="400" height="400" rx="92"></rect>
    </clipPath>
  </defs>

  <!-- background -->
  <rect x="0" y="0" width="512" height="512" rx="120" fill="#030303"></rect>
  <rect x="0" y="0" width="512" height="512" rx="120" fill="url(#grid)" opacity="0.25"></rect>

  <!-- sharp frame -->
  <rect x="46" y="46" width="420" height="420" rx="98" fill="rgba(0,255,65,0.03)" stroke="rgba(0,255,65,0.22)" stroke-width="2"></rect>

  <g clip-path="url(#clip)">
    <!-- diagonal shards -->
    <path d="M-40 420L220 120" stroke="rgba(0,240,255,0.22)" stroke-width="10"></path>
    <path d="M60 520L340 140" stroke="rgba(0,255,65,0.16)" stroke-width="10"></path>
    <path d="M280 520L620 180" stroke="rgba(255,0,60,0.12)" stroke-width="10"></path>
  </g>

  <!-- monogram: stylized C -->
  <g filter="url(#glow)">
    <!-- glitch layers -->
    <path d="M332 170
             C300 148 260 140 220 152
             C168 168 138 214 138 256
             C138 298 168 344 220 360
             C260 372 300 364 332 342" fill="none" stroke="rgba(0,240,255,0.30)" stroke-width="26" stroke-linecap="square" transform="translate(-6,0)"></path>
    <path d="M332 170
             C300 148 260 140 220 152
             C168 168 138 214 138 256
             C138 298 168 344 220 360
             C260 372 300 364 332 342" fill="none" stroke="rgba(255,0,60,0.24)" stroke-width="26" stroke-linecap="square" transform="translate(6,0)"></path>

    <!-- main stroke -->
    <path d="M332 170
             C300 148 260 140 220 152
             C168 168 138 214 138 256
             C138 298 168 344 220 360
             C260 372 300 364 332 342" fill="none" stroke="url(#g)" stroke-width="26" stroke-linecap="square"></path>

    <!-- cuts (make it sharper / techy) -->
    <path d="M350 180H418" stroke="rgba(0,255,65,0.55)" stroke-width="10"></path>
    <path d="M350 332H418" stroke="rgba(0,255,65,0.35)" stroke-width="10"></path>
    <path d="M100 256H156" stroke="rgba(0,240,255,0.35)" stroke-width="8"></path>
  </g>

  <!-- tiny signature -->
  <text x="256" y="448" text-anchor="middle" font-family="ui-monospace, SFMono-Regular, Menlo, Monaco, Consolas, 'Liberation Mono', monospace" font-size="18" letter-spacing="4" fill="rgba(234,240,255,0.55)">COMSTRX</text>
</svg>